<svg width="176" height="132" viewBox="0 0 176 132" fill="none" xmlns="http://www.w3.org/2000/svg">
  <path d="M176 0.52002H0V131.52H176V0.52002Z" fill="black" />
  <path
    d="M176 131.48H0V0.47998H176V131.48ZM0.520715 130.96H175.484V0.999966H0.515554L0.520715 130.96Z"
    fill="#171717" />
  <path
    d="M9.24429 6.65034C9.24429 6.89606 9.17143 7.13626 9.03491 7.34057C8.8984 7.54488 8.70436 7.70412 8.47735 7.79815C8.25033 7.89219 8.00053 7.91679 7.75953 7.86885C7.51853 7.82091 7.29716 7.70259 7.12341 7.52884C6.94966 7.35509 6.83133 7.13372 6.78339 6.89272C6.73545 6.65172 6.76006 6.40192 6.8541 6.1749C6.94813 5.94789 7.10736 5.75385 7.31167 5.61734C7.51598 5.48082 7.75619 5.40796 8.00191 5.40796C8.33141 5.40796 8.64741 5.53886 8.88041 5.77185C9.1134 6.00484 9.24429 6.32084 9.24429 6.65034Z"
    fill="url(#paint0_linear_5730_59074)" />
  <path
    d="M11.7084 7.89272C12.3946 7.89272 12.9508 7.33649 12.9508 6.65034C12.9508 5.96419 12.3946 5.40796 11.7084 5.40796C11.0223 5.40796 10.4661 5.96419 10.4661 6.65034C10.4661 7.33649 11.0223 7.89272 11.7084 7.89272Z"
    fill="url(#paint1_linear_5730_59074)" />
  <path
    d="M15.2329 7.89272C15.919 7.89272 16.4753 7.33649 16.4753 6.65034C16.4753 5.96419 15.919 5.40796 15.2329 5.40796C14.5467 5.40796 13.9905 5.96419 13.9905 6.65034C13.9905 7.33649 14.5467 7.89272 15.2329 7.89272Z"
    fill="url(#paint2_linear_5730_59074)" />
  <rect x="4.33398" y="15.48" width="168" height="36" rx="2" fill="#171717" />
  <path d="M8.33398 27.48H48.334H8.33398Z" fill="url(#paint3_linear_5730_59074)" />
  <path d="M8.33398 27.48H48.334" stroke="url(#paint4_linear_5730_59074)" stroke-width="1.5"
    stroke-miterlimit="10" stroke-linecap="round" stroke-linejoin="round" />
  <path d="M8.33398 32.98H88.334H8.33398Z" fill="url(#paint5_linear_5730_59074)" />
  <path d="M8.33398 32.98H88.334" stroke="url(#paint6_linear_5730_59074)" stroke-width="1.5"
    stroke-miterlimit="10" stroke-linecap="round" stroke-linejoin="round" />
  <path d="M8.33398 36.98H132.334H8.33398Z" fill="#737373" />
  <path d="M8.33398 36.98H132.334" stroke="#737373" stroke-width="1.5" stroke-miterlimit="10"
    stroke-linecap="round" stroke-linejoin="round" />
  <path d="M8.33398 40.98H132.334H8.33398Z" fill="#737373" />
  <path d="M8.33398 40.98H132.334" stroke="#737373" stroke-width="1.5" stroke-miterlimit="10"
    stroke-linecap="round" stroke-linejoin="round" />
  <rect x="138.334" y="19.48" width="30" height="12" rx="1.5" fill="url(#paint7_linear_5730_59074)" />
  <path d="M144.334 25.48H162.334H144.334Z" fill="#171717" />
  <path d="M144.334 25.48H162.334" stroke="#171717" stroke-width="1.5" stroke-miterlimit="10"
    stroke-linecap="round" stroke-linejoin="round" />
  <rect x="138.334" y="35.48" width="30" height="12" rx="1.5" fill="#262626" />
  <path d="M144.334 41.48H162.334H144.334Z" fill="#171717" />
  <path d="M144.334 41.48H162.334" stroke="#404040" stroke-width="1.5" stroke-miterlimit="10"
    stroke-linecap="round" stroke-linejoin="round" />
  <defs>
    <linearGradient id="paint0_linear_5730_59074" x1="6.46989" y1="4.71774" x2="10.6672"
      y2="4.98676" gradientUnits="userSpaceOnUse">
      <stop stop-color="#3E92E1" />
      <stop offset="1" stop-color="#9985FF" />
    </linearGradient>
    <linearGradient id="paint1_linear_5730_59074" x1="10.1764" y1="4.71774" x2="14.3738"
      y2="4.98676" gradientUnits="userSpaceOnUse">
      <stop stop-color="#3E92E1" />
      <stop offset="1" stop-color="#9985FF" />
    </linearGradient>
    <linearGradient id="paint2_linear_5730_59074" x1="13.7008" y1="4.71774" x2="17.8982"
      y2="4.98676" gradientUnits="userSpaceOnUse">
      <stop stop-color="#3E92E1" />
      <stop offset="1" stop-color="#9985FF" />
    </linearGradient>
    <linearGradient id="paint3_linear_5730_59074" x1="3.67141" y1="27.2022" x2="12.631" y2="50.1718"
      gradientUnits="userSpaceOnUse">
      <stop stop-color="#3E92E1" />
      <stop offset="1" stop-color="#9985FF" />
    </linearGradient>
    <linearGradient id="paint4_linear_5730_59074" x1="3.67141" y1="27.2022" x2="12.631" y2="50.1718"
      gradientUnits="userSpaceOnUse">
      <stop stop-color="#3E92E1" />
      <stop offset="1" stop-color="#9985FF" />
    </linearGradient>
    <linearGradient id="paint5_linear_5730_59074" x1="-0.991163" y1="32.7022" x2="3.98107"
      y2="58.1968" gradientUnits="userSpaceOnUse">
      <stop stop-color="#3E92E1" />
      <stop offset="1" stop-color="#9985FF" />
    </linearGradient>
    <linearGradient id="paint6_linear_5730_59074" x1="-0.991163" y1="32.7022" x2="3.98107"
      y2="58.1968" gradientUnits="userSpaceOnUse">
      <stop stop-color="#3E92E1" />
      <stop offset="1" stop-color="#9985FF" />
    </linearGradient>
    <linearGradient id="paint7_linear_5730_59074" x1="134.837" y1="16.1466" x2="184.448"
      y2="24.0959" gradientUnits="userSpaceOnUse">
      <stop stop-color="#3E92E1" />
      <stop offset="1" stop-color="#9985FF" />
    </linearGradient>
  </defs>
</svg>