<svg width="500" height="500" viewBox="0 0 500 500" fill="none" xmlns="http://www.w3.org/2000/svg">
<path d="M238.404 445.05H45.3037C43.7894 445.05 42.337 444.448 41.2662 443.378C40.1953 442.307 39.5938 440.854 39.5938 439.34V60.66C39.6069 59.1543 40.2143 57.7147 41.2837 56.6547C42.3532 55.5947 43.798 54.9999 45.3037 55H238.404C239.154 55 239.896 55.1477 240.589 55.4346C241.282 55.7216 241.911 56.1422 242.441 56.6724C242.972 57.2026 243.392 57.8321 243.679 58.5249C243.966 59.2176 244.114 59.9602 244.114 60.71V439.34C244.114 440.09 243.966 440.832 243.679 441.525C243.392 442.218 242.972 442.847 242.441 443.378C241.911 443.908 241.282 444.328 240.589 444.615C239.896 444.902 239.154 445.05 238.404 445.05ZM45.3037 55.2C43.8565 55.2026 42.4692 55.7787 41.4459 56.8021C40.4225 57.8255 39.8464 59.2127 39.8438 60.66V439.34C39.8464 440.787 40.4225 442.174 41.4459 443.198C42.4692 444.221 43.8565 444.797 45.3037 444.8H238.404C239.851 444.797 241.238 444.221 242.262 443.198C243.285 442.174 243.861 440.787 243.864 439.34V60.66C243.861 59.2127 243.285 57.8255 242.262 56.8021C241.238 55.7787 239.851 55.2026 238.404 55.2H45.3037Z" fill="#EBEBEB"/>
<path d="M454.701 445.05H261.601C260.086 445.05 258.634 444.448 257.563 443.378C256.492 442.307 255.891 440.854 255.891 439.34V60.66C255.904 59.1543 256.511 57.7147 257.581 56.6547C258.65 55.5947 260.095 54.9999 261.601 55H454.701C456.215 55 457.667 55.6016 458.738 56.6724C459.809 57.7433 460.411 59.1956 460.411 60.71V439.34C460.411 440.09 460.263 440.832 459.976 441.525C459.689 442.218 459.268 442.847 458.738 443.378C458.208 443.908 457.579 444.328 456.886 444.615C456.193 444.902 455.45 445.05 454.701 445.05ZM261.601 55.2C260.153 55.2026 258.766 55.7787 257.743 56.8021C256.719 57.8255 256.143 59.2127 256.141 60.66V439.34C256.143 440.787 256.719 442.174 257.743 443.198C258.766 444.221 260.153 444.797 261.601 444.8H454.701C456.148 444.797 457.535 444.221 458.559 443.198C459.582 442.174 460.158 440.787 460.161 439.34V60.66C460.158 59.2127 459.582 57.8255 458.559 56.8021C457.535 55.7787 456.148 55.2026 454.701 55.2H261.601Z" fill="#EBEBEB"/>
<path d="M113.05 168.25L114.67 171.52L118.29 172.05L115.67 174.6L116.29 178.2L113.05 176.5L109.82 178.2L110.44 174.6L107.82 172.05L111.44 171.52L113.05 168.25Z" fill="#EBEBEB"/>
<path d="M436.707 322.48L438.327 325.76L441.947 326.29L439.327 328.83L439.947 332.44L436.707 330.74L433.477 332.44L434.097 328.83L431.477 326.29L435.097 325.76L436.707 322.48Z" fill="#F5F5F5"/>
<path d="M372.605 417.57L374.225 420.84L377.835 421.37L375.215 423.92L375.835 427.52L372.605 425.82L369.375 427.52L369.985 423.92L367.375 421.37L370.985 420.84L372.605 417.57Z" fill="#F5F5F5"/>
<path d="M225.946 110.15L226.546 111.37L227.896 111.57C227.972 111.58 228.043 111.611 228.101 111.66C228.159 111.709 228.202 111.773 228.226 111.845C228.249 111.918 228.251 111.995 228.231 112.069C228.212 112.142 228.172 112.209 228.116 112.26L227.116 113.21L227.346 114.55C227.358 114.625 227.349 114.701 227.32 114.771C227.291 114.841 227.244 114.901 227.183 114.946C227.122 114.99 227.05 115.017 226.974 115.023C226.899 115.029 226.824 115.014 226.756 114.98L225.556 114.34L224.356 114.98C224.289 115.014 224.213 115.029 224.138 115.023C224.063 115.017 223.991 114.99 223.93 114.946C223.869 114.901 223.821 114.841 223.792 114.771C223.764 114.701 223.755 114.625 223.766 114.55L223.986 113.21L222.986 112.26C222.93 112.208 222.891 112.141 222.872 112.066C222.853 111.992 222.856 111.914 222.88 111.841C222.904 111.769 222.949 111.705 223.008 111.656C223.068 111.608 223.14 111.578 223.216 111.57L224.556 111.37L225.156 110.15C225.18 110.064 225.232 109.988 225.303 109.934C225.375 109.879 225.462 109.85 225.551 109.85C225.641 109.85 225.728 109.879 225.799 109.934C225.871 109.988 225.922 110.064 225.946 110.15Z" fill="#EBEBEB"/>
<path d="M60.7863 402L61.3863 403.21L62.7263 403.41C62.8024 403.42 62.874 403.452 62.933 403.501C62.992 403.55 63.0359 403.615 63.0599 403.688C63.0839 403.761 63.0869 403.839 63.0686 403.914C63.0503 403.988 63.0114 404.056 62.9563 404.11L61.9563 405.05L62.1863 406.39C62.1981 406.464 62.1891 406.541 62.1603 406.611C62.1314 406.68 62.0839 406.741 62.0229 406.785C61.9618 406.83 61.8897 406.857 61.8145 406.863C61.7392 406.869 61.6637 406.854 61.5963 406.82L60.3963 406.19L59.1963 406.82C59.1289 406.854 59.0535 406.869 58.9782 406.863C58.9029 406.857 58.8308 406.83 58.7698 406.785C58.7088 406.741 58.6612 406.68 58.6324 406.611C58.6035 406.541 58.5945 406.464 58.6063 406.39L58.8363 405.05L57.8363 404.11C57.7815 404.057 57.7424 403.99 57.7236 403.916C57.7048 403.842 57.707 403.764 57.7298 403.692C57.7526 403.619 57.7953 403.554 57.853 403.504C57.9107 403.455 57.9811 403.422 58.0563 403.41L59.3963 403.21L60.0063 402C60.0331 401.917 60.0852 401.846 60.1553 401.795C60.2253 401.744 60.3097 401.716 60.3963 401.716C60.4829 401.716 60.5673 401.744 60.6374 401.795C60.7075 401.846 60.7596 401.917 60.7863 402Z" fill="#F5F5F5"/>
<path d="M87.7559 97.2999L88.3559 98.5199L89.7059 98.7099C89.7812 98.7219 89.8516 98.7547 89.9093 98.8045C89.967 98.8543 90.0096 98.9192 90.0325 98.9919C90.0553 99.0646 90.0574 99.1422 90.0386 99.216C90.0198 99.2899 89.9808 99.357 89.9259 99.4099L88.9259 100.41L89.1559 101.74C89.1719 101.815 89.1657 101.894 89.1381 101.966C89.1105 102.038 89.0626 102.101 89.0002 102.146C88.9378 102.191 88.8637 102.218 88.7866 102.222C88.7095 102.226 88.6329 102.208 88.5659 102.17L87.3659 101.54L86.1659 102.17C86.099 102.208 86.0223 102.226 85.9453 102.222C85.8682 102.218 85.794 102.191 85.7317 102.146C85.6693 102.101 85.6214 102.038 85.5938 101.966C85.5662 101.894 85.56 101.815 85.5759 101.74L85.7959 100.41L84.7959 99.4099C84.7409 99.3564 84.702 99.2884 84.6837 99.2138C84.6654 99.1393 84.6684 99.061 84.6924 98.9881C84.7163 98.9151 84.7603 98.8504 84.8193 98.8012C84.8783 98.752 84.9499 98.7204 85.0259 98.7099L86.3659 98.5199L87.0059 97.2999C87.0381 97.2272 87.0906 97.1655 87.1572 97.1221C87.2237 97.0787 87.3015 97.0557 87.3809 97.0557C87.4604 97.0557 87.5381 97.0787 87.6047 97.1221C87.6713 97.1655 87.7238 97.2272 87.7559 97.2999Z" fill="#EBEBEB"/>
<path d="M86.1365 338.32C86.1385 338.583 86.0622 338.842 85.9173 339.062C85.7723 339.282 85.5653 339.454 85.3225 339.556C85.0796 339.658 84.8119 339.686 84.5532 339.636C84.2946 339.585 84.0567 339.46 83.8697 339.274C83.6827 339.088 83.555 338.851 83.5029 338.593C83.4507 338.335 83.4765 338.067 83.5768 337.823C83.6772 337.58 83.8477 337.371 84.0666 337.225C84.2855 337.078 84.5431 337 84.8065 337C85.1575 337 85.4943 337.139 85.7435 337.386C85.9926 337.633 86.1339 337.969 86.1365 338.32Z" fill="#EBEBEB"/>
<path d="M275.676 171.89C275.678 172.153 275.601 172.411 275.456 172.631C275.311 172.851 275.104 173.024 274.862 173.126C274.619 173.228 274.351 173.256 274.092 173.206C273.834 173.155 273.596 173.029 273.409 172.844C273.222 172.658 273.094 172.421 273.042 172.163C272.99 171.905 273.016 171.637 273.116 171.393C273.216 171.15 273.387 170.941 273.606 170.795C273.825 170.648 274.082 170.57 274.346 170.57C274.52 170.569 274.692 170.602 274.854 170.667C275.015 170.733 275.162 170.83 275.285 170.953C275.409 171.076 275.507 171.222 275.574 171.382C275.641 171.543 275.676 171.716 275.676 171.89Z" fill="#EBEBEB"/>
<path d="M206.715 98.3998C206.715 98.6629 206.637 98.92 206.491 99.1387C206.344 99.3575 206.137 99.5279 205.894 99.6286C205.651 99.7293 205.383 99.7556 205.125 99.7043C204.867 99.653 204.63 99.5263 204.444 99.3403C204.258 99.1543 204.132 98.9173 204.08 98.6593C204.029 98.4013 204.055 98.1339 204.156 97.8909C204.257 97.6478 204.427 97.4401 204.646 97.294C204.864 97.1478 205.122 97.0698 205.385 97.0698C205.737 97.0724 206.073 97.2134 206.322 97.4623C206.571 97.7111 206.712 98.0479 206.715 98.3998Z" fill="#F5F5F5"/>
<path d="M208.819 422.544C212.77 421.611 215.217 417.653 214.284 413.702C213.352 409.751 209.393 407.304 205.443 408.237C201.492 409.169 199.045 413.128 199.977 417.079C200.91 421.029 204.869 423.476 208.819 422.544Z" fill="#F0F0F0"/>
<path d="M204.606 411.09C203.101 411.087 201.633 411.563 200.416 412.45C199.795 413.876 199.642 415.462 199.98 416.98C200.319 418.498 201.131 419.869 202.299 420.896C203.467 421.923 204.931 422.552 206.48 422.693C208.028 422.834 209.582 422.479 210.916 421.68C211.507 420.587 211.804 419.36 211.777 418.119C211.751 416.877 211.403 415.664 210.767 414.597C210.131 413.531 209.229 412.648 208.149 412.035C207.069 411.421 205.848 411.099 204.606 411.1V411.09Z" fill="#E6E6E6"/>
<path d="M147.678 287.64H86.8281V260.17L147.678 187.83H176.798V261.73H191.888V287.64H176.798V310.12H147.678V287.64ZM147.678 261.73V223.89L115.518 261.73H147.678Z" fill="#4C1D95"/>
<path d="M202.301 249.51C202.301 226.65 206.414 210.65 214.641 201.51C222.867 192.37 235.404 187.803 252.251 187.81C260.337 187.81 266.981 188.81 272.181 190.81C276.904 192.512 281.23 195.163 284.891 198.6C287.976 201.546 290.59 204.949 292.641 208.69C294.67 212.596 296.198 216.742 297.191 221.03C299.451 230.191 300.58 239.594 300.551 249.03C300.551 270.843 296.861 286.807 289.481 296.92C282.101 307.033 269.391 312.093 251.351 312.1C241.231 312.1 233.054 310.487 226.821 307.26C220.537 303.981 215.245 299.082 211.491 293.07C208.591 288.643 206.334 282.587 204.721 274.9C203.046 266.542 202.235 258.034 202.301 249.51ZM235.441 249.59C235.441 264.923 236.791 275.38 239.491 280.96C242.191 286.54 246.114 289.343 251.261 289.37C252.894 289.388 254.514 289.082 256.029 288.469C257.543 287.857 258.92 286.949 260.081 285.8C262.574 283.42 264.407 279.66 265.581 274.52C266.754 269.38 267.341 261.38 267.341 250.52C267.341 234.56 265.987 223.83 263.281 218.33C260.574 212.83 256.514 210.083 251.101 210.09C245.581 210.09 241.581 212.893 239.101 218.5C236.621 224.107 235.401 234.47 235.441 249.59Z" fill="#4C1D95"/>
<path d="M371.741 287.64H310.891V260.17L371.741 187.83H400.861V261.73H416.001V287.64H400.861V310.12H371.741V287.64ZM371.741 261.73V223.89L339.591 261.73H371.741Z" fill="#4C1D95"/>
<g opacity="0.3">
<path d="M200.998 145.62C200.998 145.99 200.888 146.352 200.682 146.66C200.476 146.968 200.183 147.207 199.841 147.349C199.499 147.49 199.122 147.526 198.759 147.453C198.396 147.38 198.063 147.201 197.802 146.939C197.541 146.676 197.364 146.342 197.293 145.979C197.222 145.615 197.26 145.239 197.403 144.897C197.546 144.556 197.787 144.265 198.096 144.06C198.405 143.856 198.768 143.748 199.138 143.75C199.383 143.75 199.626 143.798 199.852 143.893C200.078 143.987 200.284 144.125 200.457 144.298C200.629 144.472 200.766 144.678 200.859 144.905C200.952 145.132 200.999 145.375 200.998 145.62Z" fill="#4C1D95"/>
<path d="M72.9684 217.45C73.6975 217.45 74.2884 216.859 74.2884 216.13C74.2884 215.401 73.6975 214.81 72.9684 214.81C72.2394 214.81 71.6484 215.401 71.6484 216.13C71.6484 216.859 72.2394 217.45 72.9684 217.45Z" fill="#4C1D95"/>
<path d="M291.046 410.22C292.09 410.22 292.936 409.374 292.936 408.33C292.936 407.287 292.09 406.44 291.046 406.44C290.002 406.44 289.156 407.287 289.156 408.33C289.156 409.374 290.002 410.22 291.046 410.22Z" fill="#4C1D95"/>
<path d="M336.5 333.32C337.229 333.32 337.82 332.729 337.82 332C337.82 331.271 337.229 330.68 336.5 330.68C335.771 330.68 335.18 331.271 335.18 332C335.18 332.729 335.771 333.32 336.5 333.32Z" fill="#4C1D95"/>
<path d="M424.171 95.6203C424.171 95.8814 424.094 96.1366 423.949 96.3536C423.804 96.5707 423.598 96.7399 423.356 96.8398C423.115 96.9397 422.85 96.9659 422.594 96.9149C422.338 96.864 422.102 96.7383 421.918 96.5537C421.733 96.3691 421.608 96.1339 421.557 95.8778C421.506 95.6218 421.532 95.3563 421.632 95.1152C421.732 94.874 421.901 94.6678 422.118 94.5228C422.335 94.3777 422.59 94.3003 422.851 94.3003C423.201 94.3003 423.537 94.4394 423.785 94.6869C424.032 94.9345 424.171 95.2702 424.171 95.6203Z" fill="#4C1D95"/>
<path d="M172.749 69.0002C172.749 69.2612 172.672 69.5165 172.527 69.7335C172.382 69.9506 172.176 70.1198 171.935 70.2197C171.693 70.3196 171.428 70.3457 171.172 70.2948C170.916 70.2439 170.681 70.1182 170.496 69.9336C170.311 69.749 170.186 69.5138 170.135 69.2577C170.084 69.0016 170.11 68.7362 170.21 68.495C170.31 68.2538 170.479 68.0477 170.696 67.9026C170.913 67.7576 171.168 67.6802 171.429 67.6802C171.779 67.6828 172.113 67.8227 172.36 68.0697C172.607 68.3167 172.747 68.6509 172.749 69.0002Z" fill="#4C1D95"/>
<path d="M277.695 138.26C278.424 138.26 279.015 137.669 279.015 136.94C279.015 136.211 278.424 135.62 277.695 135.62C276.966 135.62 276.375 136.211 276.375 136.94C276.375 137.669 276.966 138.26 277.695 138.26Z" fill="#4C1D95"/>
</g>
<path d="M141.23 138.27C153.331 138.27 163.14 128.461 163.14 116.36C163.14 104.26 153.331 94.4502 141.23 94.4502C129.13 94.4502 119.32 104.26 119.32 116.36C119.32 128.461 129.13 138.27 141.23 138.27Z" fill="#4C1D95"/>
<path opacity="0.7" d="M141.23 138.27C153.331 138.27 163.14 128.461 163.14 116.36C163.14 104.26 153.331 94.4502 141.23 94.4502C129.13 94.4502 119.32 104.26 119.32 116.36C119.32 128.461 129.13 138.27 141.23 138.27Z" fill="white"/>
<path opacity="0.2" d="M133.676 99.8302C130.692 99.821 127.738 100.423 124.996 101.6C121.626 105.304 119.626 110.05 119.328 115.049C119.03 120.048 120.453 124.998 123.36 129.075C126.266 133.153 130.481 136.112 135.304 137.462C140.126 138.811 145.265 138.468 149.866 136.49C152.718 133.347 154.596 129.443 155.273 125.253C155.949 121.062 155.394 116.766 153.675 112.885C151.957 109.003 149.148 105.705 145.591 103.389C142.033 101.074 137.88 99.8408 133.636 99.8402L133.676 99.8302Z" fill="#4C1D95"/>
<path opacity="0.2" d="M131.5 105.62C131.5 106.016 131.383 106.402 131.163 106.731C130.943 107.06 130.631 107.316 130.265 107.468C129.9 107.619 129.498 107.659 129.11 107.582C128.722 107.505 128.365 107.314 128.086 107.034C127.806 106.755 127.616 106.398 127.538 106.01C127.461 105.622 127.501 105.22 127.652 104.855C127.804 104.489 128.06 104.177 128.389 103.957C128.718 103.737 129.104 103.62 129.5 103.62C130.03 103.62 130.539 103.831 130.914 104.206C131.289 104.581 131.5 105.09 131.5 105.62Z" fill="#4C1D95"/>
<path opacity="0.2" d="M155.055 103.62C155.055 104.016 154.937 104.402 154.718 104.731C154.498 105.06 154.186 105.316 153.82 105.468C153.455 105.619 153.052 105.659 152.665 105.582C152.277 105.505 151.92 105.314 151.64 105.034C151.361 104.755 151.17 104.398 151.093 104.01C151.016 103.622 151.056 103.22 151.207 102.855C151.358 102.489 151.615 102.177 151.944 101.957C152.272 101.737 152.659 101.62 153.055 101.62C153.585 101.62 154.094 101.831 154.469 102.206C154.844 102.581 155.055 103.09 155.055 103.62Z" fill="#4C1D95"/>
<path opacity="0.2" d="M151.06 117.9C151.06 118.549 150.868 119.183 150.507 119.722C150.147 120.262 149.635 120.682 149.035 120.93C148.436 121.179 147.776 121.244 147.14 121.117C146.504 120.991 145.919 120.678 145.461 120.219C145.002 119.761 144.69 119.176 144.563 118.54C144.436 117.904 144.501 117.244 144.75 116.645C144.998 116.046 145.418 115.533 145.958 115.173C146.497 114.812 147.131 114.62 147.78 114.62C148.65 114.62 149.484 114.966 150.099 115.581C150.714 116.196 151.06 117.03 151.06 117.9Z" fill="#4C1D95"/>
<path opacity="0.2" d="M140.635 127.25C140.635 128.116 140.378 128.963 139.897 129.684C139.416 130.404 138.732 130.965 137.931 131.297C137.131 131.628 136.25 131.715 135.401 131.546C134.551 131.377 133.77 130.96 133.158 130.347C132.545 129.735 132.128 128.954 131.959 128.105C131.79 127.255 131.877 126.374 132.208 125.574C132.54 124.774 133.101 124.09 133.822 123.608C134.542 123.127 135.389 122.87 136.255 122.87C137.417 122.87 138.531 123.332 139.352 124.153C140.174 124.974 140.635 126.088 140.635 127.25Z" fill="#4C1D95"/>
<path d="M400.896 380.646C403.335 370.31 396.934 359.953 386.597 357.513C376.261 355.074 365.904 361.475 363.464 371.812C361.025 382.148 367.426 392.505 377.763 394.945C388.099 397.384 398.456 390.983 400.896 380.646Z" fill="#4C1D95"/>
<path opacity="0.3" d="M400.896 380.646C403.335 370.31 396.934 359.953 386.597 357.513C376.261 355.074 365.904 361.475 363.464 371.812C361.025 382.148 367.426 392.505 377.763 394.945C388.099 397.384 398.456 390.983 400.896 380.646Z" fill="white"/>
<path opacity="0.4" d="M394.328 361.34C390.065 360.054 385.488 360.287 381.378 362.001C377.268 363.714 373.881 366.802 371.795 370.736C369.708 374.67 369.053 379.206 369.94 383.569C370.827 387.933 373.202 391.853 376.658 394.66C378.451 395.205 380.315 395.481 382.188 395.48C386.158 395.479 390.031 394.25 393.274 391.96C396.517 389.671 398.972 386.434 400.303 382.693C401.633 378.953 401.772 374.892 400.703 371.069C399.633 367.246 397.406 363.848 394.328 361.34Z" fill="#4C1D95"/>
<path d="M363.826 382C343.296 391.66 358.606 399.11 387.536 388.71C414.326 379.08 424.536 366.94 400.536 370.71C401.826 375.76 368.276 388.83 363.826 382Z" fill="#4C1D95"/>
<path opacity="0.2" d="M394.102 187.83C367.212 206 332.402 230 322.792 287.64H320.742C330.092 230.64 363.632 206.07 390.532 187.83H394.102Z" fill="black"/>
<path d="M254.999 368.27C237.999 368.27 221.189 360.6 212.999 348.08C207.949 340.34 202.079 324.13 219.559 302.5L221.109 303.76C208.749 319.06 206.469 334.41 214.679 346.99C224.679 362.29 248.269 369.99 268.409 364.51C289.039 358.9 301.559 340.96 302.769 315.29C306.899 227.48 353.549 200.43 387.609 180.68C408.779 168.41 424.069 159.55 420.709 140.84C420.239 138.25 419.209 136.46 417.539 135.36C413.189 132.49 404.689 134.48 394.849 136.77C375.539 141.27 349.099 147.43 333.349 120.64L335.079 119.64C350.079 145.17 374.649 139.44 394.399 134.84C404.689 132.45 413.569 130.38 418.639 133.71C420.789 135.12 422.109 137.35 422.639 140.51C426.249 160.59 409.639 170.23 388.589 182.43C354.919 201.95 308.819 228.68 304.739 315.43C303.479 342.03 290.419 360.64 268.899 366.49C264.365 367.697 259.691 368.296 254.999 368.27Z" fill="#4C1D95"/>
<path opacity="0.2" d="M254.999 368.27C237.999 368.27 221.189 360.6 212.999 348.08C207.949 340.34 202.079 324.13 219.559 302.5L221.109 303.76C208.749 319.06 206.469 334.41 214.679 346.99C224.679 362.29 248.269 369.99 268.409 364.51C289.039 358.9 301.559 340.96 302.769 315.29C306.899 227.48 353.549 200.43 387.609 180.68C408.779 168.41 424.069 159.55 420.709 140.84C420.239 138.25 419.209 136.46 417.539 135.36C413.189 132.49 404.689 134.48 394.849 136.77C375.539 141.27 349.099 147.43 333.349 120.64L335.079 119.64C350.079 145.17 374.649 139.44 394.399 134.84C404.689 132.45 413.569 130.38 418.639 133.71C420.789 135.12 422.109 137.35 422.639 140.51C426.249 160.59 409.639 170.23 388.589 182.43C354.919 201.95 308.819 228.68 304.739 315.43C303.479 342.03 290.419 360.64 268.899 366.49C264.365 367.697 259.691 368.296 254.999 368.27Z" fill="white"/>
<path d="M312.758 97C317.366 97.0266 321.943 97.7446 326.338 99.13C326.338 99.13 337.338 117.9 338.638 122.2C338.178 126.44 331.028 133.39 331.028 133.39L312.758 97Z" fill="#4C1D95"/>
<path opacity="0.3" d="M312.758 97C317.366 97.0266 321.943 97.7446 326.338 99.13C326.338 99.13 337.338 117.9 338.638 122.2C338.178 126.44 331.028 133.39 331.028 133.39L312.758 97Z" fill="white"/>
<path d="M345.341 188.13C341.105 182.95 337.242 177.476 333.781 171.75C332.941 170.303 332.144 168.83 331.391 167.33C330.961 166.48 330.551 165.63 330.151 164.77C329.626 163.933 329.219 163.028 328.941 162.08C327.741 149.41 332.081 140.08 327.941 129.91L311.461 136.35C311.461 136.35 312.861 154.47 316.061 165.35C318.061 172.08 322.541 177.9 326.871 183.29C328.221 184.97 329.521 186.7 330.871 188.39C332.221 190.08 333.581 191.45 334.871 193.04C336.821 195.45 337.461 197.76 335.991 200.6L335.741 201.05C335.321 201.79 337.281 202.63 338.521 201.05C340.521 198.47 340.241 198.63 341.981 196.43C343.041 195.1 344.251 193.65 345.301 192.43C345.807 191.83 346.089 191.072 346.096 190.287C346.103 189.502 345.836 188.739 345.341 188.13Z" fill="#4C1D95"/>
<path opacity="0.7" d="M345.341 188.13C341.105 182.95 337.242 177.476 333.781 171.75C332.941 170.303 332.144 168.83 331.391 167.33C330.961 166.48 330.551 165.63 330.151 164.77C329.626 163.933 329.219 163.028 328.941 162.08C327.741 149.41 332.081 140.08 327.941 129.91L311.461 136.35C311.461 136.35 312.861 154.47 316.061 165.35C318.061 172.08 322.541 177.9 326.871 183.29C328.221 184.97 329.521 186.7 330.871 188.39C332.221 190.08 333.581 191.45 334.871 193.04C336.821 195.45 337.461 197.76 335.991 200.6L335.741 201.05C335.321 201.79 337.281 202.63 338.521 201.05C340.521 198.47 340.241 198.63 341.981 196.43C343.041 195.1 344.251 193.65 345.301 192.43C345.807 191.83 346.089 191.072 346.096 190.287C346.103 189.502 345.836 188.739 345.341 188.13Z" fill="white"/>
<path opacity="0.3" d="M341.308 182.92C338.693 185.723 335.791 188.244 332.648 190.44C333.078 190.92 333.498 191.44 333.928 191.9C337.074 189.775 339.932 187.25 342.428 184.39L341.308 182.92Z" fill="#4C1D95"/>
<path opacity="0.3" d="M345.336 188.13L345.216 187.99C344.446 188.872 343.999 189.99 343.946 191.16C343.881 191.962 344.012 192.768 344.326 193.51L345.276 192.38C345.772 191.786 346.049 191.039 346.06 190.265C346.071 189.491 345.815 188.737 345.336 188.13Z" fill="#4C1D95"/>
<path d="M308.839 109C307.052 111.675 304.909 114.094 302.469 116.19C301.116 117.356 299.633 118.363 298.049 119.19C297.217 119.616 296.355 119.981 295.469 120.28L294.789 120.5L294.569 120.56L294.099 120.69C293.81 120.759 293.515 120.806 293.219 120.83C292.375 120.895 291.527 120.817 290.709 120.6C289.678 120.307 288.689 119.88 287.769 119.33C287.029 118.897 286.311 118.427 285.619 117.92C284.369 116.99 283.173 115.988 282.039 114.92C279.851 112.847 277.844 110.593 276.039 108.18C275.691 107.71 275.519 107.133 275.551 106.55C275.583 105.966 275.818 105.412 276.215 104.983C276.612 104.554 277.146 104.277 277.726 104.199C278.305 104.122 278.893 104.25 279.389 104.56H279.469C281.829 106.06 284.209 107.64 286.529 109.05C287.709 109.74 288.849 110.44 289.979 110.98C290.495 111.25 291.026 111.491 291.569 111.7C291.907 111.849 292.27 111.938 292.639 111.96C292.699 111.96 292.639 111.89 292.269 111.9C292.152 111.893 292.035 111.893 291.919 111.9L291.699 111.95L292.029 111.78C292.473 111.541 292.904 111.277 293.319 110.99C294.214 110.359 295.05 109.65 295.819 108.87C297.566 107.039 299.202 105.106 300.719 103.08C301.55 102.15 302.698 101.565 303.939 101.438C305.179 101.311 306.422 101.653 307.424 102.395C308.426 103.138 309.114 104.228 309.354 105.452C309.593 106.676 309.367 107.945 308.719 109.01L308.839 109Z" fill="#4C1D95"/>
<path opacity="0.7" d="M308.839 109C307.052 111.675 304.909 114.094 302.469 116.19C301.116 117.356 299.633 118.363 298.049 119.19C297.217 119.616 296.355 119.981 295.469 120.28L294.789 120.5L294.569 120.56L294.099 120.69C293.81 120.759 293.515 120.806 293.219 120.83C292.375 120.895 291.527 120.817 290.709 120.6C289.678 120.307 288.689 119.88 287.769 119.33C287.029 118.897 286.311 118.427 285.619 117.92C284.369 116.99 283.173 115.988 282.039 114.92C279.851 112.847 277.844 110.593 276.039 108.18C275.691 107.71 275.519 107.133 275.551 106.55C275.583 105.966 275.818 105.412 276.215 104.983C276.612 104.554 277.146 104.277 277.726 104.199C278.305 104.122 278.893 104.25 279.389 104.56H279.469C281.829 106.06 284.209 107.64 286.529 109.05C287.709 109.74 288.849 110.44 289.979 110.98C290.495 111.25 291.026 111.491 291.569 111.7C291.907 111.849 292.27 111.938 292.639 111.96C292.699 111.96 292.639 111.89 292.269 111.9C292.152 111.893 292.035 111.893 291.919 111.9L291.699 111.95L292.029 111.78C292.473 111.541 292.904 111.277 293.319 110.99C294.214 110.359 295.05 109.65 295.819 108.87C297.566 107.039 299.202 105.106 300.719 103.08C301.55 102.15 302.698 101.565 303.939 101.438C305.179 101.311 306.422 101.653 307.424 102.395C308.426 103.138 309.114 104.228 309.354 105.452C309.593 106.676 309.367 107.945 308.719 109.01L308.839 109Z" fill="white"/>
<path d="M272.291 102.42L273.461 104.42C273.461 104.42 274.351 107.04 276.141 107.52L281.001 105.95L280.751 105.54C280.131 104.6 280.201 102.77 280.411 101.25C280.621 99.7301 279.841 99.6801 279.261 100.06C278.85 100.533 278.562 101.1 278.421 101.71C278.183 101.38 277.919 101.069 277.631 100.78L276.151 99.3001C275.841 98.9966 275.427 98.8218 274.993 98.8106C274.559 98.7995 274.137 98.9529 273.811 99.2401L272.611 100.31C272.327 100.573 272.14 100.926 272.082 101.309C272.024 101.692 272.098 102.084 272.291 102.42Z" fill="#4C1D95"/>
<path opacity="0.7" d="M272.291 102.42L273.461 104.42C273.461 104.42 274.351 107.04 276.141 107.52L281.001 105.95L280.751 105.54C280.131 104.6 280.201 102.77 280.411 101.25C280.621 99.7301 279.841 99.6801 279.261 100.06C278.85 100.533 278.562 101.1 278.421 101.71C278.183 101.38 277.919 101.069 277.631 100.78L276.151 99.3001C275.841 98.9966 275.427 98.8218 274.993 98.8106C274.559 98.7995 274.137 98.9529 273.811 99.2401L272.611 100.31C272.327 100.573 272.14 100.926 272.082 101.309C272.024 101.692 272.098 102.084 272.291 102.42Z" fill="white"/>
<path d="M317.665 95.22C312.274 96.6488 307.111 98.8267 302.325 101.69C301.578 102.157 300.992 102.842 300.646 103.651C300.299 104.461 300.208 105.357 300.385 106.22C302.315 115.66 306.705 128.3 311.445 136.35L333.555 127.2C333.705 123.3 328.335 110.68 322.865 98.48C321.885 96.29 319.995 94.66 317.665 95.22Z" fill="#4C1D95"/>
<path opacity="0.8" d="M317.665 95.22C312.274 96.6488 307.111 98.8267 302.325 101.69C301.578 102.157 300.992 102.842 300.646 103.651C300.299 104.461 300.208 105.357 300.385 106.22C302.315 115.66 306.705 128.3 311.445 136.35L333.555 127.2C333.705 123.3 328.335 110.68 322.865 98.48C321.885 96.29 319.995 94.66 317.665 95.22Z" fill="white"/>
<path opacity="0.3" d="M326.296 106.21L321.906 104.74C322.906 107.31 326.436 110.56 328.906 112.47C328.106 110.47 327.216 108.37 326.296 106.21Z" fill="#4C1D95"/>
<path d="M316.221 85.3199C314.391 81.8399 310.441 80.0899 305.701 80.4799C301.701 80.8199 298.161 84.8999 298.581 87.0999C299.001 89.2999 302.361 90.2399 303.001 90.9999L300.231 92.9999C299.903 93.2367 299.626 93.5375 299.417 93.8842C299.208 94.2308 299.072 94.6161 299.016 95.0169C298.959 95.4177 298.985 95.8256 299.091 96.2163C299.197 96.6069 299.38 96.9721 299.631 97.2899C300.801 98.7699 302.341 100.29 303.231 101.41C310.891 101.21 316.561 98.2899 318.611 95.4799C317.841 91.9199 318.001 88.7799 316.221 85.3199Z" fill="#4C1D95"/>
<path opacity="0.8" d="M316.221 85.3199C314.391 81.8399 310.441 80.0899 305.701 80.4799C301.701 80.8199 298.161 84.8999 298.581 87.0999C299.001 89.2999 302.361 90.2399 303.001 90.9999L300.231 92.9999C299.903 93.2367 299.626 93.5375 299.417 93.8842C299.208 94.2308 299.072 94.6161 299.016 95.0169C298.959 95.4177 298.985 95.8256 299.091 96.2163C299.197 96.6069 299.38 96.9721 299.631 97.2899C300.801 98.7699 302.341 100.29 303.231 101.41C310.891 101.21 316.561 98.2899 318.611 95.4799C317.841 91.9199 318.001 88.7799 316.221 85.3199Z" fill="white"/>
<path d="M312.459 87.4801C313.003 88.8747 313.121 90.3992 312.798 91.861C312.476 93.3227 311.727 94.656 310.647 95.6924C309.567 96.7287 308.204 97.4216 306.73 97.6834C305.256 97.9453 303.738 97.7643 302.367 97.1633C300.996 96.5624 299.834 95.5685 299.028 94.3073C298.222 93.0461 297.807 91.5742 297.837 90.0776C297.868 88.581 298.341 87.127 299.197 85.8993C300.054 84.6716 301.255 83.7253 302.649 83.1801C304.52 82.4511 306.604 82.4945 308.443 83.3007C310.283 84.1069 311.727 85.6101 312.459 87.4801Z" fill="#263238"/>
<path d="M377.387 177.6C377.277 174.31 377.127 174.6 377.037 171.83C376.977 170.13 376.967 168.24 376.957 166.61C376.954 165.836 376.683 165.086 376.191 164.489C375.699 163.891 375.016 163.482 374.257 163.33C372.937 163.06 371.607 162.81 370.257 162.53C368.527 162.16 366.817 161.76 365.127 161.27C363.807 160.89 362.507 160.47 361.217 160C359.927 159.53 358.477 159 357.137 158.38C355.557 157.71 353.997 156.99 352.457 156.24C350.727 155.42 349.017 154.56 347.307 153.69C340.727 142.8 340.587 135.62 333.527 127.2L318.367 134.06C318.367 134.06 329.507 153.82 337.087 162.2C341.457 167.02 348.307 169.2 354.417 170.78C358.827 171.91 363.297 172.78 367.767 173.61C369.507 173.93 371.397 174.05 372.897 175.09C374.007 175.941 374.768 177.167 375.037 178.54C375.104 178.82 375.164 179.1 375.217 179.38C375.407 180.22 377.457 179.58 377.387 177.6Z" fill="#4C1D95"/>
<path opacity="0.8" d="M377.387 177.6C377.277 174.31 377.127 174.6 377.037 171.83C376.977 170.13 376.967 168.24 376.957 166.61C376.954 165.836 376.683 165.086 376.191 164.489C375.699 163.891 375.016 163.482 374.257 163.33C372.937 163.06 371.607 162.81 370.257 162.53C368.527 162.16 366.817 161.76 365.127 161.27C363.807 160.89 362.507 160.47 361.217 160C359.927 159.53 358.477 159 357.137 158.38C355.557 157.71 353.997 156.99 352.457 156.24C350.727 155.42 349.017 154.56 347.307 153.69C340.727 142.8 340.587 135.62 333.527 127.2L318.367 134.06C318.367 134.06 329.507 153.82 337.087 162.2C341.457 167.02 348.307 169.2 354.417 170.78C358.827 171.91 363.297 172.78 367.767 173.61C369.507 173.93 371.397 174.05 372.897 175.09C374.007 175.941 374.768 177.167 375.037 178.54C375.104 178.82 375.164 179.1 375.217 179.38C375.407 180.22 377.457 179.58 377.387 177.6Z" fill="white"/>
<path opacity="0.3" d="M369.697 162.4C369.097 162.27 368.497 162.14 367.887 161.99C367.937 165.45 366.317 171.41 365.727 173.22L367.627 173.58C368.872 169.978 369.569 166.209 369.697 162.4Z" fill="#4C1D95"/>
<path opacity="0.3" d="M377.003 166.61C377 165.837 376.731 165.089 376.241 164.491C375.751 163.894 375.07 163.484 374.312 163.33L373.312 163.14C373.473 164.276 374.055 165.311 374.943 166.04C375.513 166.567 376.198 166.957 376.943 167.18C377.003 167 377.003 166.8 377.003 166.61Z" fill="#4C1D95"/>
<path d="M311.048 87.5398C311.448 89.0598 309.748 90.6498 308.398 89.3398C307.138 87.9889 305.759 86.7539 304.278 85.6498C302.888 84.7798 304.738 83.2598 306.928 83.8498C307.862 84.0846 308.726 84.5432 309.444 85.1861C310.161 85.8289 310.712 86.6367 311.048 87.5398Z" fill="white"/>
<path d="M311.162 135.86C310.462 136.12 311.742 137.32 311.742 137.32C311.742 137.32 325.742 132.53 334.242 127.6C334.263 127.302 334.212 127.002 334.094 126.728C333.975 126.453 333.793 126.21 333.562 126.02C326.288 129.721 318.809 133.006 311.162 135.86Z" fill="#4C1D95"/>
<path opacity="0.5" d="M311.162 135.86C310.462 136.12 311.742 137.32 311.742 137.32C311.742 137.32 325.742 132.53 334.242 127.6C334.263 127.302 334.212 127.002 334.094 126.728C333.975 126.453 333.793 126.21 333.562 126.02C326.288 129.721 318.809 133.006 311.162 135.86Z" fill="white"/>
<path d="M321.461 94.5599C324.221 95.9599 326.811 97.4299 329.461 99.0599C330.751 99.8799 332.031 100.71 333.301 101.61C334.571 102.51 335.831 103.43 337.101 104.47L337.571 104.86L338.161 105.4C338.512 105.714 338.846 106.048 339.161 106.4C339.481 106.75 339.751 107.09 340.011 107.4C340.271 107.71 340.551 108.08 340.781 108.4C341.713 109.685 342.574 111.021 343.361 112.4C344.911 115.074 346.248 117.866 347.361 120.75C347.567 121.295 347.577 121.894 347.391 122.446C347.205 122.998 346.833 123.468 346.339 123.777C345.846 124.085 345.26 124.214 344.682 124.139C344.105 124.065 343.571 123.793 343.171 123.37L343.121 123.31C341.121 121.18 339.191 118.94 337.251 116.85C335.311 114.76 333.341 112.64 331.711 111.71C329.441 110.3 326.911 108.89 324.401 107.51L316.841 103.31C315.669 102.689 314.791 101.628 314.401 100.361C314.011 99.0929 314.14 97.7221 314.761 96.5499C315.382 95.3776 316.442 94.4999 317.71 94.1098C318.978 93.7198 320.349 93.8493 321.521 94.4699L321.461 94.5599Z" fill="#4C1D95"/>
<path opacity="0.8" d="M321.461 94.5599C324.221 95.9599 326.811 97.4299 329.461 99.0599C330.751 99.8799 332.031 100.71 333.301 101.61C334.571 102.51 335.831 103.43 337.101 104.47L337.571 104.86L338.161 105.4C338.512 105.714 338.846 106.048 339.161 106.4C339.481 106.75 339.751 107.09 340.011 107.4C340.271 107.71 340.551 108.08 340.781 108.4C341.713 109.685 342.574 111.021 343.361 112.4C344.911 115.074 346.248 117.866 347.361 120.75C347.567 121.295 347.577 121.894 347.391 122.446C347.205 122.998 346.833 123.468 346.339 123.777C345.846 124.085 345.26 124.214 344.682 124.139C344.105 124.065 343.571 123.793 343.171 123.37L343.121 123.31C341.121 121.18 339.191 118.94 337.251 116.85C335.311 114.76 333.341 112.64 331.711 111.71C329.441 110.3 326.911 108.89 324.401 107.51L316.841 103.31C315.669 102.689 314.791 101.628 314.401 100.361C314.011 99.0929 314.14 97.7221 314.761 96.5499C315.382 95.3776 316.442 94.4999 317.71 94.1098C318.978 93.7198 320.349 93.8493 321.521 94.4699L321.461 94.5599Z" fill="white"/>
<path d="M349.73 125.74L348.88 123.61C348.88 123.61 348.41 120.89 346.72 120.13L341.72 120.92L341.89 121.36C342.35 122.36 342 124.19 341.55 125.65C341.1 127.11 341.86 127.3 342.5 127.01C342.86 126.85 343.21 126.2 343.59 125.51C343.776 125.858 343.987 126.192 344.22 126.51L345.45 128.2C345.707 128.55 346.087 128.79 346.513 128.872C346.94 128.953 347.382 128.871 347.75 128.64L349.11 127.77C349.428 127.552 349.663 127.232 349.776 126.864C349.888 126.495 349.872 126.098 349.73 125.74Z" fill="#4C1D95"/>
<path opacity="0.8" d="M349.73 125.74L348.88 123.61C348.88 123.61 348.41 120.89 346.72 120.13L341.72 120.92L341.89 121.36C342.35 122.36 342 124.19 341.55 125.65C341.1 127.11 341.86 127.3 342.5 127.01C342.86 126.85 343.21 126.2 343.59 125.51C343.776 125.858 343.987 126.192 344.22 126.51L345.45 128.2C345.707 128.55 346.087 128.79 346.513 128.872C346.94 128.953 347.382 128.871 347.75 128.64L349.11 127.77C349.428 127.552 349.663 127.232 349.776 126.864C349.888 126.495 349.872 126.098 349.73 125.74Z" fill="white"/>
<path opacity="0.3" d="M317.241 106.06L316.021 106.16L308.531 124.24C308.941 124.27 309.352 124.236 309.751 124.14C309.751 124.14 319.511 120.5 322.461 119.14C320.481 115.05 317.241 106.06 317.241 106.06Z" fill="#4C1D95"/>
<path d="M303.57 110.8C304.48 115.526 306.17 120.068 308.57 124.24C312.23 122.98 318.33 120.6 321.29 119.24C319.301 114.975 317.535 110.609 316 106.16C312.87 106.37 306 109 303.57 110.8Z" fill="white"/>
<path opacity="0.3" d="M310.997 114.71C310.851 115.199 310.563 115.634 310.17 115.959C309.777 116.284 309.296 116.486 308.788 116.538C308.28 116.59 307.768 116.49 307.317 116.251C306.866 116.012 306.496 115.644 306.254 115.195C306.012 114.746 305.909 114.235 305.957 113.727C306.005 113.219 306.203 112.736 306.526 112.341C306.848 111.945 307.281 111.654 307.769 111.504C308.257 111.355 308.778 111.353 309.267 111.5C309.922 111.697 310.472 112.145 310.796 112.747C311.121 113.349 311.193 114.055 310.997 114.71Z" fill="#4C1D95"/>
<path opacity="0.6" d="M312.912 111.27C312.873 111.437 312.785 111.588 312.658 111.704C312.532 111.819 312.373 111.894 312.203 111.918C312.034 111.942 311.861 111.914 311.707 111.838C311.554 111.762 311.427 111.641 311.343 111.492C311.259 111.342 311.222 111.171 311.238 111C311.253 110.829 311.32 110.667 311.429 110.535C311.538 110.403 311.685 110.307 311.85 110.26C312.014 110.212 312.189 110.216 312.352 110.27C312.555 110.335 312.725 110.474 312.829 110.659C312.933 110.845 312.963 111.063 312.912 111.27Z" fill="#4C1D95"/>
<path opacity="0.6" d="M315.152 110.4C315.128 110.516 315.081 110.626 315.013 110.722C314.944 110.819 314.856 110.9 314.755 110.961C314.653 111.022 314.54 111.06 314.423 111.075C314.305 111.089 314.186 111.079 314.073 111.045C313.959 111.011 313.855 110.953 313.765 110.876C313.675 110.799 313.602 110.704 313.551 110.597C313.5 110.49 313.472 110.374 313.469 110.255C313.466 110.137 313.487 110.019 313.532 109.91C313.564 109.804 313.616 109.706 313.687 109.62C313.757 109.535 313.843 109.464 313.941 109.412C314.038 109.36 314.145 109.328 314.255 109.317C314.365 109.306 314.476 109.317 314.582 109.35C314.796 109.415 314.976 109.561 315.082 109.758C315.189 109.954 315.214 110.185 315.152 110.4Z" fill="#4C1D95"/>
<path opacity="0.5" d="M318.292 118.19L309.042 121.84L308.492 120.02L317.732 116.37L318.292 118.19Z" fill="#4C1D95"/>
<path opacity="0.2" d="M267.263 257.17C267.241 262.993 266.679 268.801 265.582 274.52C264.402 279.66 262.569 283.42 260.082 285.8C258.924 286.95 257.549 287.858 256.036 288.47C254.524 289.083 252.904 289.389 251.273 289.37C246.133 289.37 242.209 286.567 239.503 280.96C239.027 279.953 238.623 278.914 238.292 277.85C232.576 282.76 227.253 288.109 222.372 293.85L217.062 300.11C219.92 303.006 223.217 305.433 226.833 307.3C233.059 310.52 241.233 312.133 251.353 312.14C253.133 312.14 254.852 312.09 256.522 311.99C262.645 302.931 267.711 293.201 271.622 282.99L286.473 244.27L267.263 257.17Z" fill="black"/>
<path d="M133.391 310L150.891 327.5L199.891 281.33C183.001 274.88 150.161 293.19 133.391 310Z" fill="#263238"/>
<path d="M194.422 371C188.832 365.4 176.922 353.5 176.922 353.5L223.092 304.5C229.502 321.35 211.192 354.22 194.422 371Z" fill="#263238"/>
<path d="M261.402 260.7L280.492 223.89L243.682 243C231.859 249.132 220.942 256.872 211.242 266L148.492 325.07L179.322 355.9L238.392 293.15C247.524 283.448 255.268 272.528 261.402 260.7Z" fill="#4C1D95"/>
<path opacity="0.6" d="M261.402 260.7L280.492 223.89L243.682 243C231.859 249.132 220.942 256.872 211.242 266L148.492 325.07L179.322 355.9L238.392 293.15C247.524 283.448 255.268 272.528 261.402 260.7Z" fill="white"/>
<path d="M222.205 295.08C229.329 295.08 235.105 289.305 235.105 282.18C235.105 275.056 229.329 269.28 222.205 269.28C215.08 269.28 209.305 275.056 209.305 282.18C209.305 289.305 215.08 295.08 222.205 295.08Z" fill="white"/>
<path d="M222.204 290.47C226.782 290.47 230.494 286.759 230.494 282.18C230.494 277.602 226.782 273.89 222.204 273.89C217.626 273.89 213.914 277.602 213.914 282.18C213.914 286.759 217.626 290.47 222.204 290.47Z" fill="#4C1D95"/>
<path opacity="0.3" d="M189.753 344.82L159.562 314.63L184.283 291.37L213.012 320.11L189.753 344.82Z" fill="#4C1D95"/>
<path d="M140.223 337.62C117.623 339.45 110.133 353.92 107.573 373.15C106.273 382.96 105.693 392.89 97.463 398.63C96.9678 398.967 96.5951 399.454 96.4005 400.021C96.2058 400.587 96.1999 401.201 96.3834 401.77C96.567 402.34 96.9302 402.835 97.4186 403.181C97.9071 403.527 98.4945 403.706 99.093 403.69C129.433 402.74 143.583 387.89 145.363 381.69C144.896 384.931 144.06 388.108 142.873 391.16C142.655 391.699 142.612 392.292 142.751 392.857C142.89 393.421 143.203 393.927 143.646 394.302C144.09 394.678 144.64 394.904 145.22 394.949C145.799 394.993 146.378 394.854 146.873 394.55C155.383 389.22 166.063 379.4 166.773 363.47C160.513 354.6 140.223 337.62 140.223 337.62Z" fill="#4C1D95"/>
<path opacity="0.2" d="M140.223 337.62C117.623 339.45 110.133 353.92 107.573 373.15C106.273 382.96 105.693 392.89 97.463 398.63C96.9678 398.967 96.5951 399.454 96.4005 400.021C96.2058 400.587 96.1999 401.201 96.3834 401.77C96.567 402.34 96.9302 402.835 97.4186 403.181C97.9071 403.527 98.4945 403.706 99.093 403.69C129.433 402.74 143.583 387.89 145.363 381.69C144.896 384.931 144.06 388.108 142.873 391.16C142.655 391.699 142.612 392.292 142.751 392.857C142.89 393.421 143.203 393.927 143.646 394.302C144.09 394.678 144.64 394.904 145.22 394.949C145.799 394.993 146.378 394.854 146.873 394.55C155.383 389.22 166.063 379.4 166.773 363.47C160.513 354.6 140.223 337.62 140.223 337.62Z" fill="white"/>
<path d="M170.286 370.3L134.086 334.1L153.366 329.93L174.456 351.02L170.286 370.3Z" fill="#4C1D95"/>
</svg>
