<svg width="376" height="66" viewBox="0 0 376 66" fill="none" xmlns="http://www.w3.org/2000/svg">
<path d="M29.6789 63.9983L29.6546 63.9984L29.6303 63.999C29.2115 64.0109 28.7969 63.9125 28.4282 63.7138L3.65205 49.4655C3.29655 49.2519 3.00309 48.9489 2.80097 48.5865C2.59691 48.2207 2.4932 47.8075 2.50035 47.3887L2.50064 47.3716V47.3545V18.711C2.50247 18.2854 2.6135 17.8674 2.82308 17.4971C3.02642 17.1458 3.31868 16.8541 3.67051 16.6516L3.67389 16.6496L28.4503 2.31954C28.4506 2.31938 28.4509 2.31922 28.4512 2.31906C28.8209 2.10613 29.2409 1.996 29.6676 2.00011L29.6676 2.00014L29.679 2.00019C30.1001 2.00186 30.5137 2.11257 30.8793 2.32152C30.8799 2.32184 30.8805 2.32216 30.881 2.32248L55.6695 16.587C55.67 16.5872 55.6704 16.5875 55.6709 16.5878C56.0327 16.7969 56.3328 17.0979 56.5412 17.4601C56.7497 17.8229 56.8588 18.2343 56.8573 18.6527V18.6597V47.3544C56.8573 47.3544 56.8573 47.3545 56.8573 47.3545C56.8572 47.7715 56.7475 48.181 56.539 48.542C56.3307 48.9028 56.0313 49.2024 55.6707 49.4108C55.6703 49.411 55.6699 49.4113 55.6695 49.4115L30.881 63.676C30.8803 63.6764 30.8796 63.6768 30.8788 63.6772C30.5133 63.886 30.0999 63.9966 29.6789 63.9983Z" stroke="white" stroke-width="4"/>
<path d="M24.2814 39.4277V35.7972L17.94 33.6728L24.2814 31.5009V27.8705L14.04 32.0716V35.2423L24.2814 39.4277ZM28.0387 42.2654L33.9044 23.7803H31.0508L25.2167 42.2654H28.0387ZM35.0142 39.4277L45.2872 35.1948V32.0241L35.0142 27.8388V31.5485L40.7531 33.8155L35.0142 35.6862V39.4277Z" fill="white"/>
<path d="M74.1719 19.9912H79.1816L88.2656 35.8447V19.9912H92.7046V42.8044H87.9485L78.6267 26.6021V42.8044H74.1719V19.9912Z" fill="white"/>
<path d="M106.117 34.593C105.848 34.772 105.561 34.9208 105.26 35.0369C104.882 35.1582 104.495 35.2535 104.103 35.3223L103.12 35.5125C102.425 35.5975 101.749 35.8013 101.123 36.115C100.843 36.3025 100.607 36.5484 100.432 36.8358C100.256 37.1232 100.145 37.4452 100.106 37.7797C100.066 38.1142 100.1 38.4532 100.205 38.7734C100.309 39.0936 100.482 39.3874 100.711 39.6344C101.164 39.9808 101.726 40.155 102.296 40.1259C103.234 40.1273 104.15 39.8334 104.912 39.2857C105.352 38.9179 105.696 38.4487 105.914 37.9184C106.132 37.3881 106.218 36.8127 106.164 36.2418L106.117 34.593ZM103.437 32.5479C104.017 32.4855 104.586 32.3524 105.134 32.1516C105.402 32.0681 105.636 31.902 105.804 31.6771C105.972 31.4521 106.065 31.1799 106.069 30.8992C106.1 30.6161 106.047 30.3302 105.918 30.0767C105.788 29.8231 105.587 29.613 105.34 29.4724C104.681 29.1673 103.956 29.0311 103.231 29.076C102.829 29.033 102.423 29.0804 102.041 29.2148C101.66 29.3493 101.314 29.5672 101.028 29.8528C100.674 30.3113 100.46 30.8615 100.409 31.4382H96.2081C96.2458 30.1312 96.6768 28.866 97.4447 27.8078C98.2061 26.9972 99.1447 26.3737 100.187 25.9859C101.229 25.5981 102.347 25.4566 103.453 25.5724C105.16 25.5403 106.85 25.9153 108.384 26.6663C109.107 27.0737 109.696 27.6843 110.076 28.4225C110.456 29.1607 110.612 29.9942 110.524 30.8199V38.5564C110.524 39.0954 110.524 39.7454 110.524 40.5222C110.516 40.9295 110.608 41.3325 110.793 41.6954C110.961 41.9189 111.186 42.0939 111.443 42.2027V42.8051H106.719C106.597 42.4927 106.506 42.1687 106.449 41.8381C106.386 41.5029 106.343 41.164 106.323 40.8235C105.708 41.4859 104.997 42.0524 104.214 42.5039C103.248 43.0517 102.154 43.336 101.043 43.3283C99.6467 43.3924 98.277 42.9283 97.2069 42.0283C96.6816 41.5682 96.2665 40.996 95.9921 40.3539C95.7177 39.7118 95.591 39.0162 95.6216 38.3186C95.552 37.4183 95.7402 36.5168 96.1641 35.7195C96.588 34.9222 97.2302 34.262 98.0154 33.8162C99.2494 33.203 100.589 32.8317 101.963 32.7223L103.437 32.5479Z" fill="white"/>
<path d="M112.728 29.2334V26.0627H115.09V21.3066H119.402V26.0627H122.145V29.2334H119.402V38.143C119.402 38.8406 119.402 39.2686 119.671 39.443C119.941 39.6174 120.369 39.6967 121.257 39.6967H121.669H122.129V42.9625H120.036C119.286 43.0756 118.52 43.037 117.785 42.8491C117.05 42.6613 116.36 42.3278 115.756 41.8686C115.258 41.2352 115.02 40.4359 115.09 39.6333V29.2334H112.728Z" fill="white"/>
<path d="M129.564 23.923H125.077V19.8486H129.564V23.923ZM125.077 25.9364H129.564V42.8045H125.077V25.9364Z" fill="white"/>
<path d="M144.244 25.9365H149L142.896 42.8046H138.235L132.195 25.9365H137.142L140.661 38.3815L144.244 25.9365Z" fill="white"/>
<path d="M158.148 29.123C157.706 29.0981 157.264 29.1704 156.854 29.3348C156.443 29.4991 156.073 29.7515 155.77 30.0742C155.173 30.819 154.809 31.7234 154.724 32.6741H161.572C161.575 31.6873 161.194 30.738 160.51 30.0266C160.196 29.7272 159.825 29.4932 159.42 29.3381C159.014 29.183 158.582 29.1098 158.148 29.123ZM158.148 25.4766C159.459 25.4582 160.758 25.7288 161.953 26.2693C163.097 26.8165 164.06 27.6803 164.727 28.7583C165.411 29.8102 165.85 31.0021 166.011 32.2461C166.147 33.3556 166.194 34.4741 166.154 35.5912H154.613C154.569 36.2696 154.69 36.9487 154.966 37.57C155.242 38.1913 155.665 38.7363 156.198 39.1582C156.852 39.5865 157.62 39.8075 158.402 39.7923C159.214 39.8275 160.008 39.5494 160.621 39.0155C160.959 38.6819 161.233 38.2898 161.43 37.8582H165.948C165.748 39.0128 165.194 40.0766 164.363 40.9021C163.594 41.7335 162.651 42.3849 161.601 42.8097C160.552 43.2344 159.421 43.4221 158.291 43.3594C156.227 43.3506 154.237 42.5896 152.694 41.2192C151.806 40.3517 151.122 39.2964 150.694 38.1306C150.266 36.9647 150.105 35.7179 150.221 34.4814C150.055 32.037 150.852 29.6246 152.441 27.7596C153.18 27.0023 154.07 26.408 155.053 26.0148C156.036 25.6217 157.09 25.4384 158.148 25.4766Z" fill="white"/>
<path d="M174.128 23.9546V28.9801H179.74C180.583 29.0137 181.42 28.8222 182.165 28.4253C182.491 28.2068 182.751 27.9042 182.919 27.5497C183.086 27.1953 183.155 26.8021 183.117 26.4119C183.167 25.9719 183.071 25.5277 182.845 25.147C182.619 24.7663 182.274 24.47 181.864 24.3034C180.985 24.0443 180.07 23.9265 179.153 23.9546H174.128ZM174.128 32.7533V38.841H179.74C180.536 38.8809 181.332 38.7456 182.07 38.4447C182.592 38.1847 183.022 37.773 183.305 37.2636C183.588 36.7542 183.71 36.1711 183.656 35.591C183.697 35.0809 183.577 34.5707 183.312 34.1326C183.047 33.6945 182.652 33.3507 182.181 33.1496C181.449 32.8653 180.668 32.7306 179.883 32.7533H174.128ZM180.659 20.0705C181.772 19.9691 182.893 20.1365 183.928 20.5586C184.962 20.9807 185.88 21.6452 186.604 22.4961C187.324 23.5143 187.696 24.7373 187.667 25.9838C187.717 27.194 187.341 28.3835 186.604 29.3448C186.115 29.8828 185.529 30.3239 184.876 30.6448C185.966 30.9606 186.916 31.6369 187.571 32.563C188.196 33.5647 188.51 34.7284 188.475 35.9081C188.492 37.1977 188.134 38.4644 187.445 39.5544C187.041 40.251 186.502 40.8601 185.859 41.3458C185.084 41.9178 184.19 42.3079 183.243 42.4873C182.2 42.6999 181.138 42.8061 180.073 42.8044H169.736V19.9912L180.659 20.0705Z" fill="white"/>
<path d="M201.364 34.5921C201.093 34.7648 200.806 34.9133 200.508 35.036C200.13 35.1572 199.743 35.2526 199.351 35.3213L198.368 35.5116C197.668 35.599 196.988 35.8026 196.355 36.114C196.078 36.3045 195.846 36.5521 195.673 36.8401C195.501 37.1281 195.392 37.4498 195.355 37.7834C195.317 38.1171 195.351 38.4549 195.456 38.774C195.56 39.0932 195.731 39.3863 195.958 39.6335C196.412 39.9799 196.974 40.154 197.544 40.125C198.482 40.1264 199.397 39.8324 200.16 39.2847C200.6 38.917 200.943 38.4477 201.162 37.9174C201.38 37.3871 201.466 36.8117 201.412 36.2408L201.364 34.5921ZM198.669 32.547C199.265 32.4902 199.851 32.357 200.413 32.1507C200.684 32.0699 200.922 31.905 201.093 31.6798C201.264 31.4547 201.359 31.1809 201.364 30.8982C201.395 30.6152 201.343 30.3292 201.213 30.0757C201.084 29.8222 200.883 29.6121 200.635 29.4714C199.976 29.1664 199.252 29.0302 198.527 29.0751C198.125 29.0309 197.718 29.0778 197.336 29.2123C196.955 29.3467 196.609 29.5654 196.323 29.8519C195.97 30.3104 195.755 30.8606 195.705 31.4372H191.44C191.478 30.1303 191.909 28.865 192.677 27.8068C193.432 26.9899 194.366 26.3588 195.405 25.9628C196.445 25.5668 197.562 25.4166 198.669 25.5239C200.371 25.4919 202.056 25.8669 203.584 26.6178C204.312 27.0214 204.905 27.6307 205.288 28.3695C205.672 29.1083 205.829 29.9438 205.74 30.7714V38.5079C205.74 39.0469 205.74 39.6969 205.74 40.4737C205.732 40.881 205.824 41.284 206.01 41.6469C206.178 41.8704 206.402 42.0454 206.66 42.1542V42.8042H201.903C201.781 42.4918 201.691 42.1678 201.634 41.8371C201.57 41.502 201.528 41.1631 201.507 40.8225C200.892 41.485 200.182 42.0514 199.399 42.503C198.432 43.0507 197.339 43.335 196.228 43.3274C194.842 43.3803 193.487 42.9171 192.423 42.0274C191.923 41.5528 191.532 40.9752 191.278 40.3347C191.023 39.6941 190.911 39.0059 190.949 38.3177C190.879 37.4173 191.067 36.5158 191.491 35.7185C191.915 34.9212 192.557 34.2611 193.343 33.8153C194.551 33.2095 195.864 32.8384 197.211 32.7214L198.669 32.547Z" fill="white"/>
<path d="M213.143 37.4145C213.172 38.0223 213.381 38.6077 213.746 39.095C214.17 39.4346 214.658 39.6865 215.18 39.8362C215.703 39.9859 216.25 40.0303 216.789 39.967C217.496 39.995 218.2 39.865 218.85 39.5865C219.078 39.4916 219.273 39.3306 219.408 39.1244C219.544 38.9181 219.615 38.676 219.611 38.4292C219.621 38.2009 219.568 37.9743 219.459 37.7733C219.351 37.5724 219.189 37.4046 218.993 37.2877C217.506 36.7014 215.966 36.2556 214.396 35.956C212.929 35.6838 211.546 35.0761 210.353 34.1804C209.95 33.7909 209.636 33.3183 209.433 32.7955C209.231 32.2726 209.144 31.712 209.18 31.1524C209.173 30.3913 209.332 29.6379 209.647 28.945C209.962 28.2521 210.425 27.6365 211.003 27.1415C212.432 25.956 214.254 25.3506 216.108 25.4452C217.911 25.3706 219.698 25.8105 221.26 26.7135C221.96 27.2058 222.533 27.8583 222.93 28.6167C223.327 29.375 223.537 30.2172 223.543 31.0732H219.279C219.246 30.589 219.081 30.1231 218.803 29.7256C218.484 29.3963 218.094 29.1438 217.662 28.9873C217.231 28.8308 216.77 28.7742 216.314 28.822C215.604 28.7697 214.893 28.9238 214.269 29.2659C214.087 29.3792 213.936 29.5352 213.828 29.7203C213.72 29.9054 213.659 30.114 213.651 30.328C213.638 30.5543 213.693 30.7792 213.809 30.974C213.925 31.1688 214.096 31.3247 214.301 31.4219C215.795 31.9597 217.333 32.3681 218.898 32.6427C220.362 32.9135 221.728 33.5641 222.861 34.5292C223.283 34.9405 223.614 35.4345 223.835 35.9802C224.056 36.5259 224.162 37.1114 224.146 37.6999C224.164 38.4812 224.006 39.2567 223.682 39.9679C223.358 40.6791 222.877 41.3075 222.275 41.806C220.51 42.85 218.494 43.3929 216.443 43.3762C214.393 43.3594 212.386 42.7836 210.638 41.7108C210.027 41.1774 209.542 40.5158 209.216 39.7733C208.889 39.0307 208.731 38.2253 208.752 37.4145H213.143Z" fill="white"/>
<path d="M234.007 29.1225C233.565 29.0976 233.123 29.1699 232.712 29.3343C232.301 29.4986 231.931 29.751 231.629 30.0737C231.032 30.8185 230.668 31.7229 230.582 32.6737H237.431C237.434 31.6868 237.053 30.7375 236.369 30.0261C236.054 29.7267 235.684 29.4927 235.278 29.3376C234.873 29.1825 234.44 29.1094 234.007 29.1225ZM234.007 25.4762C235.318 25.4577 236.617 25.7283 237.811 26.2688C238.957 26.8194 239.924 27.6821 240.602 28.7578C241.272 29.8164 241.709 31.0052 241.886 32.2456C242.014 33.3557 242.056 34.4741 242.013 35.5907H230.471C230.427 36.2692 230.548 36.9482 230.824 37.5695C231.101 38.1908 231.523 38.7358 232.057 39.1577C232.711 39.5861 233.479 39.8071 234.26 39.7919C235.072 39.827 235.867 39.5489 236.48 39.015C236.817 38.6781 237.096 38.2869 237.304 37.8577H241.806C241.607 39.0123 241.053 40.0762 240.221 40.9016C239.452 41.733 238.51 42.3844 237.46 42.8092C236.41 43.234 235.28 43.4217 234.149 43.3589C232.064 43.3656 230.049 42.6037 228.49 41.2187C227.604 40.3498 226.923 39.2939 226.498 38.1281C226.073 36.9623 225.914 35.7162 226.032 34.481C225.862 32.0387 226.653 29.6265 228.236 27.7591C228.983 26.9937 229.883 26.3946 230.877 26.0012C231.872 25.6078 232.938 25.4289 234.007 25.4762Z" fill="white"/>
<path d="M368.301 15.0605H262.083C260.611 15.0605 259.2 15.6451 258.159 16.6857C257.119 17.7263 256.534 19.1377 256.534 20.6093V45.9748C256.534 47.4464 257.119 48.8578 258.159 49.8984C259.2 50.939 260.611 51.5236 262.083 51.5236H368.301C369.773 51.5236 371.184 50.939 372.225 49.8984C373.265 48.8578 373.85 47.4464 373.85 45.9748V20.6093C373.85 19.1377 373.265 17.7263 372.225 16.6857C371.184 15.6451 369.773 15.0605 368.301 15.0605Z" stroke="white" stroke-width="1.58694"/>
<path d="M274.116 36.2894C274.176 36.861 274.384 37.4071 274.718 37.8747C275.079 38.2377 275.518 38.5145 276.001 38.6847C276.484 38.8548 276.999 38.914 277.508 38.8576C278.152 38.879 278.795 38.7933 279.411 38.604C279.821 38.5001 280.184 38.26 280.44 37.9231C280.697 37.5862 280.831 37.1723 280.822 36.7491C280.827 36.5015 280.765 36.257 280.642 36.0419C280.519 35.8269 280.34 35.6493 280.124 35.5284C279.435 35.1944 278.696 34.9749 277.936 34.8784L276.24 34.4979C275.029 34.2809 273.862 33.8687 272.784 33.2772C272.248 32.8797 271.821 32.3528 271.544 31.7456C271.266 31.1384 271.148 30.4709 271.199 29.8053C271.184 29.133 271.319 28.4658 271.593 27.8518C271.867 27.2378 272.274 26.6921 272.784 26.2541C274.077 25.2187 275.713 24.7091 277.366 24.8273C278.913 24.7821 280.431 25.2565 281.678 26.1749C282.271 26.6276 282.75 27.2137 283.075 27.8857C283.4 28.5577 283.562 29.2968 283.548 30.0431H280.378C280.379 29.6196 280.263 29.204 280.042 28.8429C279.82 28.4817 279.503 28.1892 279.125 27.998C278.522 27.713 277.858 27.577 277.191 27.6017C276.467 27.5655 275.749 27.7478 275.13 28.1248C274.887 28.2779 274.688 28.4912 274.552 28.744C274.416 28.9968 274.347 29.2805 274.353 29.5675C274.344 29.832 274.41 30.0937 274.545 30.3214C274.68 30.5491 274.878 30.7332 275.114 30.8516C275.784 31.1536 276.486 31.3771 277.207 31.5175L279.95 32.1675C280.931 32.3616 281.861 32.7615 282.676 33.3406C283.159 33.7275 283.542 34.2245 283.793 34.79C284.044 35.3555 284.156 35.973 284.119 36.5906C284.128 37.2852 283.982 37.9731 283.692 38.604C283.401 39.2348 282.973 39.7928 282.439 40.2369C281.084 41.2841 279.391 41.7974 277.683 41.6796C275.929 41.7817 274.194 41.2779 272.768 40.2528C272.182 39.787 271.715 39.1896 271.404 38.5092C271.092 37.8288 270.946 37.0846 270.977 36.3369L274.116 36.2894Z" fill="white"/>
<path d="M285.039 31.707V29.5192H286.624V26.2217H289.684V29.5192H291.602V31.707H289.684V37.9533C289.642 38.2724 289.709 38.5965 289.874 38.8728C290.226 39.0346 290.616 39.095 291 39.0471H291.285H291.602V41.3618H290.144C289.619 41.4421 289.083 41.4162 288.568 41.2855C288.054 41.1547 287.571 40.9219 287.148 40.6008C286.774 40.1606 286.586 39.5918 286.624 39.0154V31.707H285.039Z" fill="white"/>
<path d="M300.132 35.4807C299.939 35.5968 299.738 35.6975 299.529 35.7819C299.265 35.8699 298.995 35.9387 298.721 35.988L298.023 36.1148C297.536 36.1741 297.064 36.319 296.628 36.5429C296.399 36.6706 296.21 36.8603 296.084 37.0902C295.958 37.3202 295.899 37.581 295.915 37.8429C295.894 38.0556 295.921 38.2703 295.995 38.4708C296.07 38.6713 296.188 38.8523 296.343 39.0002C296.654 39.2321 297.033 39.3547 297.421 39.3489C298.074 39.346 298.711 39.1411 299.244 38.7624C299.555 38.5052 299.799 38.1757 299.954 37.8026C300.109 37.4296 300.17 37.0242 300.132 36.6221V35.4807ZM298.261 34.038C298.677 33.9987 299.087 33.9082 299.482 33.7685C299.67 33.7082 299.834 33.5898 299.951 33.4303C300.068 33.2708 300.131 33.0784 300.132 32.8807C300.152 32.683 300.116 32.4836 300.026 32.3064C299.936 32.1292 299.796 31.9818 299.624 31.8819C299.161 31.6785 298.656 31.5862 298.15 31.6124C297.862 31.5742 297.569 31.6029 297.294 31.6964C297.019 31.7899 296.77 31.9456 296.565 32.1515C296.324 32.4652 296.171 32.8372 296.121 33.2295H293.14C293.166 32.315 293.471 31.4302 294.012 30.6929C294.542 30.122 295.198 29.6818 295.927 29.4067C296.655 29.1316 297.438 29.0292 298.213 29.1076C299.411 29.0831 300.597 29.3496 301.669 29.8844C302.179 30.1655 302.593 30.591 302.861 31.1072C303.129 31.6234 303.239 32.2074 303.175 32.7856V38.2075C303.175 38.5721 303.175 39.0319 303.175 39.5709C303.163 39.8578 303.229 40.1428 303.366 40.3953C303.482 40.5473 303.634 40.6674 303.81 40.744V41.2196H300.449C300.368 41.0032 300.304 40.7805 300.258 40.5538C300.258 40.3318 300.258 40.094 300.258 39.8404C299.829 40.3037 299.332 40.6993 298.784 41.0135C298.097 41.3981 297.32 41.5949 296.533 41.5843C295.564 41.6218 294.616 41.2999 293.87 40.6806C293.513 40.3458 293.236 39.9359 293.058 39.4808C292.88 39.0256 292.805 38.5366 292.839 38.0489C292.793 37.4159 292.926 36.7827 293.223 36.2219C293.52 35.6611 293.97 35.1954 294.52 34.8783C295.369 34.4612 296.288 34.2033 297.23 34.1173L298.261 34.038Z" fill="white"/>
<path d="M312.418 29.1223H312.814V32.293H312.291H311.927C311.437 32.2303 310.94 32.3107 310.496 32.5245C310.051 32.7384 309.678 33.0764 309.422 33.4978C309.147 34.1651 309.028 34.8861 309.073 35.6063V41.2185H305.902V29.4076H308.851V31.4686C309.178 30.8744 309.601 30.3386 310.104 29.8832C310.752 29.3476 311.578 29.0759 312.418 29.1223Z" fill="white"/>
<path d="M313.433 31.707V29.5192H315.018V26.2217H318.078V29.5192H319.996V31.707H318.078V37.9533C318.036 38.2724 318.103 38.5965 318.268 38.8728C318.62 39.0346 319.009 39.095 319.394 39.0471H319.679H319.996V41.3618H318.537C318.012 41.4421 317.477 41.4162 316.962 41.2855C316.447 41.1547 315.964 40.9219 315.541 40.6008C315.167 40.1606 314.979 39.5918 315.018 39.0154V31.707H313.433Z" fill="white"/>
<path d="M325.116 29.4082V36.463C325.082 37.0023 325.163 37.5428 325.354 38.0484C325.5 38.3551 325.74 38.607 326.04 38.7668C326.34 38.9266 326.683 38.986 327.019 38.9361C327.466 38.9776 327.915 38.8774 328.302 38.6498C328.688 38.4222 328.994 38.0787 329.175 37.6679C329.406 37.0832 329.514 36.4572 329.492 35.8289V29.4082H332.663V41.219H329.619V39.6337L329.397 39.9508C329.29 40.1334 329.15 40.2947 328.985 40.4264C328.582 40.8182 328.101 41.1207 327.574 41.3142C327.063 41.4826 326.527 41.563 325.988 41.552C325.276 41.6283 324.558 41.4856 323.929 41.1428C323.3 40.8 322.791 40.2736 322.469 39.6337C322.074 38.6643 321.901 37.6189 321.962 36.574V29.4082H325.116Z" fill="white"/>
<path d="M343.745 35.3065C343.761 34.462 343.547 33.6291 343.126 32.8967C342.92 32.5537 342.622 32.2744 342.267 32.0897C341.912 31.9051 341.512 31.8223 341.113 31.8504C340.606 31.8193 340.103 31.9584 339.683 32.2456C339.264 32.5327 338.953 32.9516 338.798 33.4357C338.556 34.1279 338.443 34.8588 338.465 35.5918C338.408 36.1249 338.477 36.664 338.667 37.1654C338.857 37.6667 339.163 38.1161 339.559 38.4772C340.016 38.8175 340.575 38.991 341.145 38.9686C341.529 38.9882 341.911 38.9063 342.254 38.7309C342.596 38.5556 342.886 38.293 343.095 37.9698C343.576 37.1684 343.803 36.2396 343.745 35.3065ZM341.985 29.1395C342.648 29.1361 343.305 29.2761 343.91 29.5497C344.514 29.8233 345.053 30.2241 345.488 30.7248C346.528 31.9795 347.044 33.586 346.931 35.2113C347.054 36.9154 346.552 38.6058 345.52 39.9674C345.081 40.4885 344.528 40.9022 343.904 41.177C343.281 41.4518 342.602 41.5803 341.921 41.5527C341.084 41.5838 340.26 41.3387 339.575 40.8552C339.188 40.5252 338.852 40.1407 338.576 39.7137V45.8649H335.517V29.409H338.481V31.1528C338.768 30.6922 339.127 30.2802 339.543 29.9321C340.245 29.4011 341.105 29.1219 341.985 29.1395Z" fill="white"/>
<path d="M348.532 36.7492V33.9273H352.971V29.4883H355.825V33.9273H360.264V36.7492H355.825V41.2199H352.971V36.7492H348.532Z" fill="white"/>
</svg>
